<svg viewBox="0 0 256 256" xmlns="http://www.w3.org/2000/svg" font-family="'IBM Plex Mono', 'Courier New', monospace">
  <rect x="0" y="0" width="256" height="256" fill="#faf6ed"/>
  <rect x="20" y="20" width="216" height="216" fill="none" stroke="#2c2417" stroke-width="4"/>
  <rect x="28" y="28" width="200" height="36" fill="#2c2417"/>
  <text x="128" y="53" text-anchor="middle" font-size="18" fill="#faf6ed" font-weight="bold">synthesist</text>
  <!-- DAG tree, asymmetric branching -->
  <!-- Root -->
  <circle cx="128" cy="80" r="5" fill="#2c2417"/>
  <!-- Level 1 -->
  <line x1="128" y1="85" x2="85" y2="110" stroke="#2c2417" stroke-width="2.5"/>
  <line x1="128" y1="85" x2="170" y2="108" stroke="#2c2417" stroke-width="2.5"/>
  <circle cx="85" cy="110" r="5" fill="#2c2417"/>
  <circle cx="170" cy="108" r="5" fill="#2c2417"/>
  <!-- Level 2 -->
  <line x1="85" y1="115" x2="55" y2="142" stroke="#2c2417" stroke-width="2"/>
  <line x1="85" y1="115" x2="105" y2="145" stroke="#2c2417" stroke-width="2"/>
  <line x1="170" y1="113" x2="148" y2="140" stroke="#2c2417" stroke-width="2"/>
  <line x1="170" y1="113" x2="198" y2="138" stroke="#2c2417" stroke-width="2"/>
  <circle cx="55" cy="142" r="4" fill="#2c2417"/>
  <circle cx="105" cy="145" r="4" fill="#2c2417"/>
  <circle cx="148" cy="140" r="4" fill="#2c2417"/>
  <circle cx="198" cy="138" r="4" fill="#2c2417"/>
  <!-- Level 3 (convergence, DAG not tree) -->
  <line x1="55" y1="146" x2="78" y2="172" stroke="#2c2417" stroke-width="1.5"/>
  <line x1="105" y1="149" x2="78" y2="172" stroke="#2c2417" stroke-width="1.5"/>
  <line x1="105" y1="149" x2="128" y2="175" stroke="#2c2417" stroke-width="1.5"/>
  <line x1="148" y1="144" x2="128" y2="175" stroke="#2c2417" stroke-width="1.5"/>
  <line x1="198" y1="142" x2="178" y2="170" stroke="#2c2417" stroke-width="1.5"/>
  <circle cx="78" cy="172" r="4" fill="#2c2417"/>
  <circle cx="128" cy="175" r="4" fill="#2c2417"/>
  <circle cx="178" cy="170" r="4" fill="#2c2417"/>
  <!-- Final convergence -->
  <line x1="78" y1="176" x2="115" y2="200" stroke="#2c2417" stroke-width="1.5"/>
  <line x1="128" y1="179" x2="115" y2="200" stroke="#2c2417" stroke-width="1.5"/>
  <line x1="178" y1="174" x2="155" y2="200" stroke="#2c2417" stroke-width="1.5"/>
  <circle cx="115" cy="200" r="4" fill="#2c2417"/>
  <circle cx="155" cy="200" r="4" fill="#2c2417"/>
  <line x1="60" y1="224" x2="196" y2="224" stroke="#c4b99a" stroke-width="2"/>
</svg>
