<svg viewBox="0 0 1200 430" xmlns="http://www.w3.org/2000/svg">
  <rect x="0" y="0" width="1200" height="430" fill="#faf6ed" stroke="#2c2417" stroke-width="3"/>

  <!-- Title bar -->
  <rect x="0" y="0" width="1200" height="36" fill="#2c2417"/>
  <text x="16" y="24" font-family="'IBM Plex Mono', monospace" font-size="14" fill="#faf6ed" font-weight="bold">synthesist -- specification graph manager (v2)</text>
  <text x="1184" y="24" font-family="'IBM Plex Mono', monospace" font-size="11" fill="#c4b99a" text-anchor="end">claim substrate · rust + sqlite</text>

  <!-- Phase machine ribbon -->
  <rect x="40" y="52" width="1120" height="30" fill="none" stroke="#c4b99a" stroke-width="1"/>
  <text x="56" y="72" font-family="'IBM Plex Mono', monospace" font-size="9" fill="#6b5d4f">ORIENT -> PLAN -> AGREE -> EXECUTE &lt;-> REFLECT -> REPORT</text>
  <text x="1144" y="72" font-family="'IBM Plex Mono', monospace" font-size="9" fill="#2c2417" text-anchor="end">AGREE = hard gate (per session)</text>

  <!-- Left: INPUTS -->
  <rect x="40" y="100" width="260" height="250" fill="none" stroke="#2c2417" stroke-width="2"/>
  <rect x="40" y="100" width="260" height="28" fill="#2c2417"/>
  <text x="170" y="118" font-family="'IBM Plex Mono', monospace" font-size="11" fill="#faf6ed" text-anchor="middle" font-weight="bold">INPUTS</text>

  <text x="56" y="148" font-family="'IBM Plex Mono', monospace" font-size="9" fill="#2c2417" font-weight="bold">agent commands</text>
  <text x="56" y="164" font-family="'IBM Plex Mono', monospace" font-size="9" fill="#6b5d4f">  spec / task / discovery / session</text>
  <text x="56" y="180" font-family="'IBM Plex Mono', monospace" font-size="9" fill="#6b5d4f">  campaign / phase / migrate</text>

  <text x="56" y="204" font-family="'IBM Plex Mono', monospace" font-size="9" fill="#2c2417" font-weight="bold">claim writes</text>
  <text x="56" y="220" font-family="'IBM Plex Mono', monospace" font-size="9" fill="#6b5d4f">  16 typed claim kinds</text>
  <text x="56" y="236" font-family="'IBM Plex Mono', monospace" font-size="9" fill="#6b5d4f">  bi-temporal: event + asserted</text>
  <text x="56" y="252" font-family="'IBM Plex Mono', monospace" font-size="9" fill="#6b5d4f">  content-addressed, append-only</text>

  <text x="56" y="276" font-family="'IBM Plex Mono', monospace" font-size="9" fill="#2c2417" font-weight="bold">session scope</text>
  <text x="56" y="292" font-family="'IBM Plex Mono', monospace" font-size="9" fill="#6b5d4f">  asserter namespace per writer</text>
  <text x="56" y="308" font-family="'IBM Plex Mono', monospace" font-size="9" fill="#6b5d4f">  required for every write</text>

  <text x="170" y="340" font-family="'IBM Plex Mono', monospace" font-size="9" fill="#6b5d4f" text-anchor="middle">CLI surface = the only way in</text>

  <!-- Arrow -->
  <line x1="300" y1="225" x2="350" y2="225" stroke="#2c2417" stroke-width="1.5"/>
  <polygon points="350,220 360,225 350,230" fill="#2c2417"/>

  <!-- Center: PROCESS -->
  <rect x="360" y="100" width="260" height="250" fill="none" stroke="#2c2417" stroke-width="2"/>
  <rect x="360" y="100" width="260" height="28" fill="#2c2417"/>
  <text x="490" y="118" font-family="'IBM Plex Mono', monospace" font-size="11" fill="#faf6ed" text-anchor="middle" font-weight="bold">PROCESS</text>

  <text x="376" y="148" font-family="'IBM Plex Mono', monospace" font-size="9" fill="#2c2417" font-weight="bold">claim graph (CRDT)</text>
  <text x="376" y="164" font-family="'IBM Plex Mono', monospace" font-size="9" fill="#6b5d4f">  append-only .amc log</text>
  <text x="376" y="180" font-family="'IBM Plex Mono', monospace" font-size="9" fill="#6b5d4f">  supersession per field</text>
  <text x="376" y="196" font-family="'IBM Plex Mono', monospace" font-size="9" fill="#6b5d4f">  multi-writer auto-merge</text>

  <line x1="376" y1="210" x2="604" y2="210" stroke="#c4b99a" stroke-width="1"/>

  <text x="376" y="230" font-family="'IBM Plex Mono', monospace" font-size="9" fill="#2c2417" font-weight="bold">materialized view</text>
  <text x="376" y="246" font-family="'IBM Plex Mono', monospace" font-size="9" fill="#6b5d4f">  SQLite cache (rebuildable)</text>
  <text x="376" y="262" font-family="'IBM Plex Mono', monospace" font-size="9" fill="#6b5d4f">  read-only SQL queries</text>
  <text x="376" y="278" font-family="'IBM Plex Mono', monospace" font-size="9" fill="#6b5d4f">  diamond-conflict surfacing</text>

  <line x1="376" y1="292" x2="604" y2="292" stroke="#c4b99a" stroke-width="1"/>

  <text x="376" y="312" font-family="'IBM Plex Mono', monospace" font-size="9" fill="#2c2417" font-weight="bold">phase machine</text>
  <text x="376" y="328" font-family="'IBM Plex Mono', monospace" font-size="9" fill="#6b5d4f">  algorithmic enforcement</text>
  <text x="376" y="344" font-family="'IBM Plex Mono', monospace" font-size="9" fill="#6b5d4f">  per-session, not global</text>

  <!-- Arrow -->
  <line x1="620" y1="225" x2="670" y2="225" stroke="#2c2417" stroke-width="1.5"/>
  <polygon points="670,220 680,225 670,230" fill="#2c2417"/>

  <!-- Right: OUTPUTS -->
  <rect x="680" y="100" width="480" height="250" fill="none" stroke="#2c2417" stroke-width="2"/>
  <rect x="680" y="100" width="480" height="28" fill="#2c2417"/>
  <text x="920" y="118" font-family="'IBM Plex Mono', monospace" font-size="11" fill="#faf6ed" text-anchor="middle" font-weight="bold">OUTPUTS</text>

  <text x="696" y="148" font-family="'IBM Plex Mono', monospace" font-size="9" fill="#2c2417" font-weight="bold">estate JSON</text>
  <text x="696" y="164" font-family="'IBM Plex Mono', monospace" font-size="9" fill="#6b5d4f">  every command emits structured JSON; agents pipe it</text>

  <line x1="696" y1="178" x2="1144" y2="178" stroke="#c4b99a" stroke-width="1"/>

  <text x="696" y="198" font-family="'IBM Plex Mono', monospace" font-size="9" fill="#2c2417">synthesist status</text>
  <text x="900" y="198" font-family="'IBM Plex Mono', monospace" font-size="9" fill="#6b5d4f">trees, ready tasks, sessions, phase</text>
  <text x="696" y="214" font-family="'IBM Plex Mono', monospace" font-size="9" fill="#2c2417">synthesist task ready t/s</text>
  <text x="900" y="214" font-family="'IBM Plex Mono', monospace" font-size="9" fill="#6b5d4f">next actionable work</text>
  <text x="696" y="230" font-family="'IBM Plex Mono', monospace" font-size="9" fill="#2c2417">synthesist task done t/s id</text>
  <text x="900" y="230" font-family="'IBM Plex Mono', monospace" font-size="9" fill="#6b5d4f">verifies acceptance</text>
  <text x="696" y="246" font-family="'IBM Plex Mono', monospace" font-size="9" fill="#2c2417">synthesist discovery add t/s</text>
  <text x="900" y="246" font-family="'IBM Plex Mono', monospace" font-size="9" fill="#6b5d4f">institutional memory</text>
  <text x="696" y="262" font-family="'IBM Plex Mono', monospace" font-size="9" fill="#2c2417">synthesist conflicts</text>
  <text x="900" y="262" font-family="'IBM Plex Mono', monospace" font-size="9" fill="#6b5d4f">diamond-conflict report</text>
  <text x="696" y="278" font-family="'IBM Plex Mono', monospace" font-size="9" fill="#2c2417">synthesist sql "SELECT ..."</text>
  <text x="900" y="278" font-family="'IBM Plex Mono', monospace" font-size="9" fill="#6b5d4f">read-only view queries</text>

  <line x1="696" y1="292" x2="1144" y2="292" stroke="#c4b99a" stroke-width="1"/>

  <text x="696" y="312" font-family="'IBM Plex Mono', monospace" font-size="9" fill="#6b5d4f">propagation checks fan stale outputs across the spec DAG</text>
  <text x="696" y="328" font-family="'IBM Plex Mono', monospace" font-size="9" fill="#6b5d4f">retros close arcs and emit transforms</text>
  <text x="696" y="344" font-family="'IBM Plex Mono', monospace" font-size="9" fill="#6b5d4f">human decides what; the agent decides how</text>

  <!-- Footer -->
  <line x1="40" y1="370" x2="1160" y2="370" stroke="#c4b99a" stroke-width="1"/>
  <text x="600" y="392" font-family="'IBM Plex Mono', monospace" font-size="10" fill="#6b5d4f" text-anchor="middle">specification first; the binary enforces structure on the process governing the code</text>
  <text x="590" y="416" text-anchor="middle" fill="#2c2417" font-family="'IBM Plex Mono', monospace" font-size="9" font-weight="600">Built with GitLab</text>
  <g transform="translate(634, 405) scale(0.045)">
    <path d="M282.83,170.73l-.27-.69-26.14-68.22a6.81,6.81,0,0,0-2.69-3.24,7,7,0,0,0-8,.43,7,7,0,0,0-2.32,3.52l-17.65,54H154.29l-17.65-54A6.86,6.86,0,0,0,134.32,99a7,7,0,0,0-8-.43,6.87,6.87,0,0,0-2.69,3.24L97.44,170l-.26.69a48.54,48.54,0,0,0,16.1,56.1l.09.07.24.17,39.82,29.82,19.7,14.91,12,9.06a8.07,8.07,0,0,0,9.76,0l12-9.06,19.7-14.91,40.06-30,.1-.08A48.56,48.56,0,0,0,282.83,170.73Z" fill="#E24329"/>
    <path d="M282.83,170.73l-.27-.69a88.3,88.3,0,0,0-35.15,15.8L190,229.25c19.55,14.79,36.57,27.64,36.57,27.64l40.06-30,.1-.08A48.56,48.56,0,0,0,282.83,170.73Z" fill="#FC6D26"/>
    <path d="M153.43,256.89l19.7,14.91,12,9.06a8.07,8.07,0,0,0,9.76,0l12-9.06,19.7-14.91S209.55,244,190,229.25C170.45,244,153.43,256.89,153.43,256.89Z" fill="#FCA326"/>
    <path d="M132.58,185.84A88.19,88.19,0,0,0,97.44,170l-.26.69a48.54,48.54,0,0,0,16.1,56.1l.09.07.24.17,39.82,29.82s17-12.85,36.57-27.64Z" fill="#FC6D26"/>
  </g>
</svg>
