<svg viewBox="0 0 1200 430" xmlns="http://www.w3.org/2000/svg">
  <!-- Background with border -->
  <rect x="0" y="0" width="1200" height="430" fill="#faf6ed" stroke="#2c2417" stroke-width="3"/>

  <!-- Title bar -->
  <rect x="0" y="0" width="1200" height="36" fill="#2c2417"/>
  <text x="16" y="24" font-family="'IBM Plex Mono', monospace" font-size="14" fill="#faf6ed" font-weight="bold">nomograph-claim</text>
  <text x="1184" y="24" font-family="'IBM Plex Mono', monospace" font-size="11" fill="#c4b99a" text-anchor="end">claim substrate: per-asserter JSON-LD logs + redb gamma index</text>

  <!-- Section labels -->
  <text x="160" y="76" font-family="'IBM Plex Mono', monospace" font-size="11" fill="#6b5d4f" text-anchor="middle">asserters</text>
  <text x="600" y="76" font-family="'IBM Plex Mono', monospace" font-size="11" fill="#6b5d4f" text-anchor="middle">substrate</text>
  <text x="1020" y="76" font-family="'IBM Plex Mono', monospace" font-size="11" fill="#6b5d4f" text-anchor="middle">consumers</text>

  <!-- Left column: three actors -->
  <!-- user-A -->
  <rect x="60" y="100" width="200" height="46" fill="none" stroke="#2c2417" stroke-width="2"/>
  <text x="160" y="128" font-family="'IBM Plex Mono', monospace" font-size="13" fill="#2c2417" text-anchor="middle" font-weight="bold">user-A</text>
  <!-- user-B -->
  <rect x="60" y="188" width="200" height="46" fill="none" stroke="#2c2417" stroke-width="2"/>
  <text x="160" y="216" font-family="'IBM Plex Mono', monospace" font-size="13" fill="#2c2417" text-anchor="middle" font-weight="bold">user-B</text>
  <!-- ingest-X -->
  <rect x="60" y="276" width="200" height="46" fill="none" stroke="#2c2417" stroke-width="2"/>
  <text x="160" y="304" font-family="'IBM Plex Mono', monospace" font-size="13" fill="#2c2417" text-anchor="middle" font-weight="bold">ingest-X</text>

  <!-- Typed claim boxes (small labeled) adjacent to each actor -->
  <!-- user-A emits spec + task -->
  <rect x="278" y="104" width="56" height="18" fill="#faf6ed" stroke="#2c2417" stroke-width="1.5"/>
  <text x="306" y="117" font-family="'IBM Plex Mono', monospace" font-size="10" fill="#2c2417" text-anchor="middle">spec</text>
  <rect x="278" y="126" width="56" height="18" fill="#faf6ed" stroke="#2c2417" stroke-width="1.5"/>
  <text x="306" y="139" font-family="'IBM Plex Mono', monospace" font-size="10" fill="#2c2417" text-anchor="middle">task</text>

  <!-- user-B emits task + signal -->
  <rect x="278" y="192" width="56" height="18" fill="#faf6ed" stroke="#2c2417" stroke-width="1.5"/>
  <text x="306" y="205" font-family="'IBM Plex Mono', monospace" font-size="10" fill="#2c2417" text-anchor="middle">task</text>
  <rect x="278" y="214" width="56" height="18" fill="#faf6ed" stroke="#2c2417" stroke-width="1.5"/>
  <text x="306" y="227" font-family="'IBM Plex Mono', monospace" font-size="10" fill="#2c2417" text-anchor="middle">signal</text>

  <!-- ingest-X emits signal -->
  <rect x="278" y="280" width="56" height="18" fill="#faf6ed" stroke="#2c2417" stroke-width="1.5"/>
  <text x="306" y="293" font-family="'IBM Plex Mono', monospace" font-size="10" fill="#2c2417" text-anchor="middle">signal</text>
  <rect x="278" y="302" width="56" height="18" fill="#faf6ed" stroke="#2c2417" stroke-width="1.5"/>
  <text x="306" y="315" font-family="'IBM Plex Mono', monospace" font-size="10" fill="#2c2417" text-anchor="middle">topic</text>

  <!-- Arrows from claim boxes converging into cylinder -->
  <!-- user-A branch -->
  <line x1="334" y1="123" x2="505" y2="190" stroke="#2c2417" stroke-width="1.5"/>
  <line x1="334" y1="135" x2="505" y2="195" stroke="#2c2417" stroke-width="1.5"/>
  <!-- user-B branch -->
  <line x1="334" y1="211" x2="505" y2="215" stroke="#2c2417" stroke-width="1.5"/>
  <line x1="334" y1="223" x2="505" y2="220" stroke="#2c2417" stroke-width="1.5"/>
  <!-- ingest-X branch -->
  <line x1="334" y1="299" x2="505" y2="240" stroke="#2c2417" stroke-width="1.5"/>
  <line x1="334" y1="311" x2="505" y2="245" stroke="#2c2417" stroke-width="1.5"/>
  <!-- Arrowheads pointing into cylinder -->
  <polygon points="505,190 495,188 498,196" fill="#2c2417"/>
  <polygon points="505,215 495,211 495,219" fill="#2c2417"/>
  <polygon points="505,245 495,238 498,246" fill="#2c2417"/>

  <!-- Central cylinder: claims/ -->
  <!-- cylinder top ellipse -->
  <ellipse cx="600" cy="150" rx="95" ry="18" fill="#faf6ed" stroke="#2c2417" stroke-width="2.5"/>
  <!-- cylinder body -->
  <line x1="505" y1="150" x2="505" y2="280" stroke="#2c2417" stroke-width="2.5"/>
  <line x1="695" y1="150" x2="695" y2="280" stroke="#2c2417" stroke-width="2.5"/>
  <!-- cylinder bottom ellipse (front arc) -->
  <path d="M 505 280 A 95 18 0 0 0 695 280" fill="#faf6ed" stroke="#2c2417" stroke-width="2.5"/>
  <!-- cylinder bottom ellipse (back dashed) -->
  <path d="M 505 280 A 95 18 0 0 1 695 280" fill="none" stroke="#2c2417" stroke-width="1" stroke-dasharray="3,3"/>

  <!-- cylinder labels -->
  <text x="600" y="156" font-family="'IBM Plex Mono', monospace" font-size="12" fill="#2c2417" text-anchor="middle" font-weight="bold">claims/</text>
  <text x="600" y="200" font-family="'IBM Plex Mono', monospace" font-size="11" fill="#2c2417" text-anchor="middle">claims/&lt;asserter&gt;/</text>
  <text x="600" y="225" font-family="'IBM Plex Mono', monospace" font-size="11" fill="#2c2417" text-anchor="middle">log.jsonl</text>
  <text x="600" y="248" font-family="'IBM Plex Mono', monospace" font-size="11" fill="#2c2417" text-anchor="middle">(per-asserter)</text>

  <!-- Arrows from cylinder to outputs -->
  <!-- to redb gamma index -->
  <line x1="695" y1="190" x2="840" y2="165" stroke="#2c2417" stroke-width="1.5"/>
  <polygon points="840,165 830,161 831,170" fill="#2c2417"/>
  <!-- to git sync -->
  <line x1="695" y1="240" x2="840" y2="275" stroke="#2c2417" stroke-width="1.5"/>
  <polygon points="840,275 830,269 830,278" fill="#2c2417"/>

  <!-- Output 1: redb gamma index -->
  <rect x="840" y="110" width="260" height="110" fill="none" stroke="#2c2417" stroke-width="2"/>
  <!-- grid cells -->
  <line x1="840" y1="140" x2="1100" y2="140" stroke="#2c2417" stroke-width="1"/>
  <line x1="840" y1="170" x2="1100" y2="170" stroke="#2c2417" stroke-width="1"/>
  <line x1="840" y1="195" x2="1100" y2="195" stroke="#2c2417" stroke-width="1"/>
  <line x1="905" y1="140" x2="905" y2="220" stroke="#2c2417" stroke-width="1"/>
  <line x1="970" y1="140" x2="970" y2="220" stroke="#2c2417" stroke-width="1"/>
  <line x1="1035" y1="140" x2="1035" y2="220" stroke="#2c2417" stroke-width="1"/>
  <text x="970" y="128" font-family="'IBM Plex Mono', monospace" font-size="12" fill="#2c2417" text-anchor="middle" font-weight="bold">redb gamma index (cache)</text>

  <!-- Output 2: git sync -->
  <rect x="840" y="250" width="260" height="60" fill="none" stroke="#2c2417" stroke-width="2" stroke-dasharray="6,4"/>
  <text x="970" y="277" font-family="'IBM Plex Mono', monospace" font-size="12" fill="#2c2417" text-anchor="middle" font-weight="bold">git sync</text>
  <text x="970" y="294" font-family="'IBM Plex Mono', monospace" font-size="10" fill="#6b5d4f" text-anchor="middle">(plain git push/pull)</text>

  <!-- Legend -->
  <text x="600" y="340" font-family="'IBM Plex Mono', monospace" font-size="11" fill="#6b5d4f" text-anchor="middle">append -&gt; index -&gt; query</text>

  <!-- Footer line -->
  <line x1="40" y1="360" x2="1160" y2="360" stroke="#c4b99a" stroke-width="1"/>

  <!-- Tagline -->
  <text x="600" y="380" font-family="'IBM Plex Mono', monospace" font-size="10" fill="#6b5d4f" text-anchor="middle">append-only, asserter-attributed</text>

  <!-- Built with GitLab -->
  <text x="590" y="408" text-anchor="middle" fill="#2c2417" font-family="'IBM Plex Mono', monospace" font-size="9" font-weight="600">Built with GitLab</text>
  <g transform="translate(634, 397) scale(0.045)">
    <path d="M282.83,170.73l-.27-.69-26.14-68.22a6.81,6.81,0,0,0-2.69-3.24,7,7,0,0,0-8,.43,7,7,0,0,0-2.32,3.52l-17.65,54H154.29l-17.65-54A6.86,6.86,0,0,0,134.32,99a7,7,0,0,0-8-.43,6.87,6.87,0,0,0-2.69,3.24L97.44,170l-.26.69a48.54,48.54,0,0,0,16.1,56.1l.09.07.24.17,39.82,29.82,19.7,14.91,12,9.06a8.07,8.07,0,0,0,9.76,0l12-9.06,19.7-14.91,40.06-30,.1-.08A48.56,48.56,0,0,0,282.83,170.73Z" fill="#E24329"/>
    <path d="M282.83,170.73l-.27-.69a88.3,88.3,0,0,0-35.15,15.8L190,229.25c19.55,14.79,36.57,27.64,36.57,27.64l40.06-30,.1-.08A48.56,48.56,0,0,0,282.83,170.73Z" fill="#FC6D26"/>
    <path d="M153.43,256.89l19.7,14.91,12,9.06a8.07,8.07,0,0,0,9.76,0l12-9.06,19.7-14.91S209.55,244,190,229.25C170.45,244,153.43,256.89,153.43,256.89Z" fill="#FCA326"/>
    <path d="M132.58,185.84A88.19,88.19,0,0,0,97.44,170l-.26.69a48.54,48.54,0,0,0,16.1,56.1l.09.07.24.17,39.82,29.82s17-12.85,36.57-27.64Z" fill="#FC6D26"/>
  </g>
</svg>
